<?xml version="1.0" encoding="UTF-8" standalone="no"?>
<svg width="42px" height="42px" viewBox="0 0 42 42" version="1.1" xmlns="http://www.w3.org/2000/svg" xmlns:xlink="http://www.w3.org/1999/xlink">
    <!-- Generator: Sketch 44.1 (41455) - http://www.bohemiancoding.com/sketch -->
    <title>自由比价</title>
    <desc>Created with Sketch.</desc>
    <defs></defs>
    <g id="Page-1" stroke="none" stroke-width="1" fill="none" fill-rule="evenodd">
        <g id="装修-首页" transform="translate(-1051.000000, -3355.000000)">
            <g id="Group-17" transform="translate(1052.000000, 3356.000000)">
                <g id="自由比价">
                    <circle id="Oval-3" stroke="#9A84FF" cx="20" cy="20" r="20"></circle>
                    <g id="保障" transform="translate(10.000000, 9.000000)" fill-rule="nonzero" fill="#9A84FF">
                        <path d="M10.1051085,23.9835566 C6.58051014,23.9835566 0.0227736882,18.7967086 0.0227736882,13.6918299 L0.0227736882,3.52465485 L1.02452068,3.50964367 C1.04671779,3.50964367 3.28506259,3.46138752 5.59356122,2.52518507 C7.96303336,1.56289896 9.48970071,0.455651592 9.50441655,0.444551567 L10.1031902,0.00977793631 L10.7058005,0.444551567 C10.7205985,0.455624051 12.2491841,1.56287141 14.616875,2.52518507 C16.9271549,3.46138752 18.9491465,3.50964367 18.9732618,3.50964367 L19.9713093,3.52465485 L19.9748718,13.6918024 C19.9749814,18.7967086 13.6334612,23.9835566 10.1051085,23.9835566 L10.1051085,23.9835566 L10.1051085,23.9835566 L10.1051085,23.9835566 Z M0.827907274,4.53797784 L0.827907274,13.7307557 C0.827907274,18.14527 7.56091886,23.1999512 10.1151776,23.1999512 C12.6715354,23.1999512 19.1579072,18.1452392 19.1579072,13.7307557 L19.1579072,4.53797784 C18.0654953,4.41748815 16.0572926,4.11389111 14.2147658,3.34904352 C12.3278589,2.56354934 10.8959987,1.71133902 10.1151476,1.19995117 C9.33858456,1.71133902 7.90258618,2.56354934 6.01756845,3.34904352 C4.17531161,4.11389111 1.92025918,4.41748815 0.827907274,4.53797784 L0.827907274,4.53797784 L0.827907274,4.53797784 L0.827907274,4.53797784 Z M5.28477483,12.2500396 L5.82451381,11.5664934 L9.56558188,14.7089467 C13.5013642,10.2364937 15.5343379,7.93706213 15.6645028,7.81065198 C15.7946677,7.68424184 15.9395404,7.86865009 16.0991207,8.36387674 L9.56558188,15.8987227 L5.28477483,12.2500396 Z" id="Shape"></path>
                    </g>
                </g>
            </g>
        </g>
    </g>
</svg>