<?xml version="1.0" encoding="UTF-8" standalone="no"?>
<svg width="42px" height="42px" viewBox="0 0 42 42" version="1.1" xmlns="http://www.w3.org/2000/svg" xmlns:xlink="http://www.w3.org/1999/xlink">
    <!-- Generator: Sketch 44.1 (41455) - http://www.bohemiancoding.com/sketch -->
    <title>Group 19</title>
    <desc>Created with Sketch.</desc>
    <defs></defs>
    <g id="Page-1" stroke="none" stroke-width="1" fill="none" fill-rule="evenodd">
        <g id="装修-首页" transform="translate(-383.000000, -3355.000000)">
            <g id="Group-17" transform="translate(384.000000, 3356.000000)">
                <g id="Group-19">
                    <g id="自由比价" stroke="#FF916C">
                        <circle id="Oval-3" cx="20" cy="20" r="20"></circle>
                    </g>
                    <g id="品质" transform="translate(10.000000, 12.000000)" fill-rule="nonzero" fill="#FF916C">
                        <path d="M21.8177483,7.09817376 L11.8396214,20.3742374 C11.6559537,20.6551413 11.3402825,20.8246519 11.0011356,20.8246519 C10.6620551,20.8246519 10.3463175,20.6551413 10.1626498,20.3742374 L0.184545021,7.09817376 C-0.0113361988,6.79901685 -0.0276209133,6.41919356 0.141443629,6.10466229 L5.54560137,0.695893201 C5.71856008,0.374165409 6.05788397,0.172968323 6.42721067,0.172968323 L15.4513321,0.172968323 C15.8142865,0.172968323 16.1490082,0.367426855 16.324445,0.680497022 L21.8523091,6.08926611 C22.0301355,6.40623984 22.0170148,6.79421917 21.8177483,7.09817376 Z M10.9577687,18.1596519 L14.7672856,7.05687013 L7.20259319,7.05687013 L10.9577687,18.1596519 Z M10.0462008,18.5706819 L6.15194147,7.05687013 L1.3926009,7.05687013 L10.0462008,18.5706819 Z M6.42721067,1.15640467 L1.51440437,6.07347739 L6.26788156,6.07347739 L10.009693,1.15642648 L6.42721067,1.15640467 L6.42721067,1.15640467 Z M7.50270986,6.07347739 L14.6318083,6.07347739 L11.0420465,1.42193423 L7.50270986,6.07347739 Z M15.4513321,1.15640467 L12.0847108,1.15640467 L15.8742479,6.06676065 L15.8674331,6.07347739 L20.4764498,6.07347739 L15.4513321,1.15640467 Z M15.8274515,7.05687013 L11.8108798,18.763723 L20.6098916,7.05687013 L15.8274515,7.05687013 Z" id="Shape"></path>
                    </g>
                </g>
            </g>
        </g>
    </g>
</svg>