<?xml version="1.0" encoding="UTF-8" standalone="no"?>
<svg width="42px" height="42px" viewBox="0 0 42 42" version="1.1" xmlns="http://www.w3.org/2000/svg" xmlns:xlink="http://www.w3.org/1999/xlink">
    <!-- Generator: Sketch 44.1 (41455) - http://www.bohemiancoding.com/sketch -->
    <title>自由比价</title>
    <desc>Created with Sketch.</desc>
    <defs></defs>
    <g id="Page-1" stroke="none" stroke-width="1" fill="none" fill-rule="evenodd">
        <g id="装修-首页" transform="translate(-727.000000, -3355.000000)">
            <g id="Group-17" transform="translate(728.000000, 3356.000000)">
                <g id="自由比价">
                    <circle id="Oval-3" stroke="#6CBDFF" cx="20" cy="20" r="20"></circle>
                    <g id="商家" transform="translate(10.000000, 11.000000)" fill-rule="nonzero" fill="#6CBDFF">
                        <path d="M20.9788879,7.24421784 C20.9788879,7.19687416 20.9722645,7.14953048 20.9568099,7.10444125 L19.5526472,2.55042966 L19.5526472,0.492106605 C19.5526472,0.230589108 19.3451138,0.0209242178 19.0912164,0.0209242178 L1.96528953,0.0209242178 C1.70918439,0.0209242178 1.50385873,0.232843569 1.50385873,0.492106605 L1.50385873,2.40839861 C1.49723532,2.42192538 1.49281971,2.4377066 1.48840411,2.45123337 L0.0356698152,7.08189664 C0.0224229979,7.12698586 0.0135917864,7.17432955 0.0135917864,7.22167323 L0.00476057495,8.29028783 C0.00476057495,8.29254229 0.00476057495,8.29254229 0.00476057495,8.29479676 C0.00476057495,9.33635782 0.523594251,10.256178 1.31177988,10.7995031 C1.28970185,10.8558647 1.27645503,10.9167351 1.27645503,10.97986 L1.27645503,18.5142693 C1.27645503,18.7757868 1.4839885,18.9854517 1.73788583,18.9854517 L19.186152,18.9854517 C19.4422571,18.9854517 19.6475828,18.7735323 19.6475828,18.5142693 L19.6475828,12.0710192 C19.6475828,11.8095017 19.4400493,11.5998368 19.186152,11.5998368 C18.9322546,11.5998368 18.7247211,11.8117562 18.7247211,12.0710192 L18.7247211,18.0430869 L2.20152444,18.0430869 L2.20152444,11.2120695 C2.44438275,11.2774489 2.70048789,11.3135203 2.96321643,11.3135203 C4.02516961,11.3135203 4.95686242,10.7408871 5.4779039,9.88193743 C6.00115318,10.7408871 6.932846,11.3135203 7.99259138,11.3135203 C9.04350554,11.3135203 9.96857495,10.7521594 10.494032,9.90448204 C11.0194891,10.749905 11.9445585,11.3135203 12.9954727,11.3135203 C14.0574259,11.3135203 14.9891187,10.7408871 15.5101602,9.88193743 C16.0334094,10.7408871 16.9651023,11.3135203 18.0270554,11.3135203 C19.6586218,11.3135203 20.9855113,9.95858911 20.9855113,8.29254229 C20.9855113,8.29254229 20.9855113,8.29028783 20.9855113,8.29028783 L20.9788879,7.24421784 Z M2.42672033,0.965543453 L18.6275778,0.965543453 L18.6275778,2.1243365 L2.42672033,2.1243365 L2.42672033,0.965543453 Z M18.0270554,10.3711555 C16.9054916,10.3711555 15.9914612,9.44006304 15.9914612,8.29254229 C15.9914612,8.0310248 15.7839277,7.82135991 15.5300304,7.82135991 L15.4924977,7.82135991 C15.2363926,7.82135991 15.0310669,8.03327926 15.0310669,8.29254229 C15.0310669,9.43780857 14.1192444,10.3711555 12.9954727,10.3711555 C11.871701,10.3711555 10.9620862,9.43780857 10.9620862,8.29254229 C10.9620862,8.0310248 10.7545528,7.82135991 10.5006554,7.82135991 L10.4918242,7.82135991 C10.2357191,7.82135991 10.0303934,8.03327926 10.0303934,8.29254229 C10.0303934,9.43780857 9.11857084,10.3711555 7.99479918,10.3711555 C6.87323532,10.3711555 5.95920493,9.44006304 5.95920493,8.29254229 C5.95920493,8.0310248 5.75167146,7.82135991 5.49777413,7.82135991 L5.46024148,7.82135991 C5.20413634,7.82135991 4.99881068,8.03327926 4.99881068,8.29254229 C4.99881068,9.43780857 4.08698809,10.3711555 2.96321643,10.3711555 C1.84165257,10.3711555 0.929829979,9.44006304 0.927622177,8.29479676 L0.936453388,7.30057937 L2.26334292,3.06670127 L18.7423836,3.06670127 L20.0538185,7.32086952 L20.0582341,8.29254229 C20.0604419,9.44006304 19.1486193,10.3711555 18.0270554,10.3711555 Z" id="Shape"></path>
                    </g>
                </g>
            </g>
        </g>
    </g>
</svg>